<svg viewBox="0 0 24 24" xml:space="preserve" xmlns="http://www.w3.org/2000/svg"><g fill="#ffffff" class="fill-303c42"><path d="M10.5 1h-6C2.57 1 1 2.57 1 4.5v15C1 21.43 2.57 23 4.5 23h6a.5.5 0 0 0 .5-.5v-21a.5.5 0 0 0-.5-.5zM6 10c-1.379 0-2.5-1.122-2.5-2.5S4.621 5 6 5s2.5 1.122 2.5 2.5S7.379 10 6 10zM19.5 1h-6a.5.5 0 0 0-.5.5v21a.5.5 0 0 0 .5.5h6c1.93 0 3.5-1.57 3.5-3.5v-15C23 2.57 21.43 1 19.5 1zM18 16c-1.379 0-2.5-1.122-2.5-2.5S16.621 11 18 11s2.5 1.122 2.5 2.5S19.379 16 18 16z"></path></g></svg>